<svg width="30" height="30" viewBox="0 0 30 30" fill="none" xmlns="http://www.w3.org/2000/svg">
<path d="M19 2C19.2652 2 19.5195 2.10543 19.707 2.29297L24.707 7.29297C24.8946 7.4805 25 7.73478 25 8V25C25 26.6523 23.6523 28 22 28H8C6.34772 28 5 26.6523 5 25V5C5 3.34772 6.34772 2 8 2H19Z" fill="url(#paint0_linear_2877_33321)"/>
<path d="M19 3V8H24L19 3Z" fill="#384EE0" stroke="#384EE0" stroke-width="2" stroke-miterlimit="10" stroke-linecap="round" stroke-linejoin="round"/>
<path d="M9 9V17.0005C9.00015 18.0496 9.27536 19.0804 9.79819 19.99C10.321 20.8996 11.0732 21.6562 11.9796 22.1843C12.8861 22.7124 13.9152 22.9936 14.9643 22.9999C16.0133 23.0061 17.0457 22.7372 17.9584 22.2199C18.8711 21.7026 19.6322 20.955 20.1658 20.0517C20.6995 19.1484 20.9869 18.121 20.9996 17.0719C21.0122 16.0229 20.7496 14.9888 20.2379 14.0729C19.7262 13.157 18.9833 12.3913 18.0833 11.8522L13.6667 9.30202V11.1488L9 9ZM15 13.667C15.8841 13.667 16.7319 14.0182 17.357 14.6433C17.9821 15.2685 18.3333 16.1164 18.3333 17.0005C18.3333 17.8846 17.9821 18.7325 17.357 19.3577C16.7319 19.9828 15.8841 20.334 15 20.334C14.1159 20.334 13.2681 19.9828 12.643 19.3577C12.0179 18.7325 11.6667 17.8846 11.6667 17.0005C11.6667 16.1164 12.0179 15.2685 12.643 14.6433C13.2681 14.0182 14.1159 13.667 15 13.667Z" fill="white"/>
<defs>
<linearGradient id="paint0_linear_2877_33321" x1="15" y1="2" x2="15" y2="28" gradientUnits="userSpaceOnUse">
<stop offset="0.275374" stop-color="#38B3E0"/>
<stop offset="1" stop-color="#384EE0"/>
</linearGradient>
</defs>
</svg>
